<svg width="62px" height="62px" viewBox="0 0 62 62" version="1.1" xmlns="http://www.w3.org/2000/svg" xmlns:xlink="http://www.w3.org/1999/xlink">
    <!-- Generator: Sketch 51.3 (57544) - http://www.bohemiancoding.com/sketch -->
    <desc>Created with Sketch.</desc>
    <defs></defs>
    <g id="Page-1" stroke="none" stroke-width="1" fill="none" fill-rule="evenodd">
        <g id="Finland_road_sign_422" transform="translate(31.000000, 31.000000) scale(-1, 1) translate(-31.000000, -31.000000) " fill-rule="nonzero">
            <circle id="circle862" fill="#0050AA" cx="31" cy="31" r="31"></circle>
            <polyline id="path2846" fill="#FFFFFF" points="19.5302659 28.0589207 18.7305849 27.7827924 17.2692964 27.4949772 16.0539522 27.4029344 14.5782808 27.4496856 14.6171143 27.8310044 13.2449983 28.1553467 11.9433601 28.6988385 10.7366448 29.4454057 9.65937505 30.3687556 8.74031654 31.4484336 7.99672744 32.663985 7.45449757 33.984726 7.12081705 35.3712149 7 36.7986093 7.10211958 38.2260045 7.43004596 39.6197921 7.95789259 40.9419962 8.69285335 42.1648501 9.12289979 42.7331809 10.3368043 43.9501899 11.8714463 44.946591 12.722906 45.3673579 14.5394463 45.837799 16.1445634 45.9619834 18.0358981 45.7077717 19.3778123 45.2782379 20.6406169 44.6295549 21.7826114 43.7953245 22.7807734 42.788696 23.61066 41.630127 24.2578836 40.3561366 24.6490953 40.4949298 25.0892062 39.1084447 25.3107028 37.6664404 25.3193258 36.2142082 25.1122122 34.7707446 24.6821699 33.3769527 24.0507642 32.0620557 23.2352605 30.8698805 22.2457273 29.8165022 21.2777662 29.0480176 20.4881528 28.5439732 20.9110089 27.3108917 29.3062293 36.7328623 28.9955602 37.3976179 28.8905661 38.4933645 29.0746641 39.2063325 29.4414253 39.8389433 30.2727507 40.5446049 31.3198157 40.8368059 31.6779471 40.8280547 32.0849776 42.3694101 31.4463857 42.3694101 31.4463857 43.3102893 33.8195442 43.3102893 33.8109212 42.3854813 32.9810355 42.3854813 32.4848325 40.6089074 33.1162343 40.1720673 33.6110014 39.5789052 33.9302983 39.0602505 34.0266636 38.4948436 35.6950658 38.3399782 36.0301825 39.7264633 36.5738516 41.047206 37.3160017 42.2642179 38.2350599 43.3497361 39.3137655 44.2833138 40.5190411 45.0284232 41.8206831 45.571916 43.8903654 45.9926829 45.3041906 46 46.7021941 45.7808536 48.0412308 45.3454711 49.3040373 44.7040964 50.4460279 43.869864 51.4528235 42.8632404 52.291339 41.7119749 52.9457536 40.4394459 53.3930564 39.0851012 53.6332504 37.6664718 53.6490616 36.2405354 54 36.2156868 53.9122635 35.4778812 53.5526962 34.0344146 52.9860153 32.6640019 52.2194137 31.3987758 51.2615211 30.2723475 50.151171 29.3066296 48.8969924 28.5279177 47.5464522 27.9522852 46.1268738 27.6060266 44.6727744 27.4759982 43.2114859 27.5811889 41.781838 27.9128377 40.424105 28.4636334 38.2105978 24.4984841 38.4507918 23.9798329 38.3141532 23.9082447 38.5946166 23.2843951 38.8822729 23.2756438 39.1526686 23.2186663 39.4086805 23.113475 39.6488745 22.9688389 39.864617 22.7818282 41.1418074 21.1279791 41.2295401 20.8284756 41.1978813 20.6736092 41.0137832 20.4223185 40.7189331 20.3258921 39.5927651 20.6736092 38.4737853 20.869382 37.9071044 20.876699 36.389721 20.673619 35.9913192 20.6575595 35.6001114 20.6824073 35.328273 20.8197381 35.305265 21.2726513 35.9755042 21.8731177 37.2052275 22.6839725 37.866835 23.0156214 37.6295195 23.5357333 37.5015136 23.4860585 37.42097 23.6321592 22.2299181 23.6321592 22.7002336 22.2135315 22.5333932 22.1653178 23.2525316 20.1783633 23.0914453 20.1126189 23.1403435 19.9752842 22.7879663 19.8291847 22.7246851 19.9665194 22.5247644 19.8788589 22.4068232 19.7663603 22.3104617 19.4653944 22.3262719 19.3119914 22.382365 19.1746558 22.4787303 19.0519338 22.6398166 18.9701182 22.8526796 18.8824577 23.2136913 18.8225562 26.1909207 19.1410539 26.3505701 18.2980605 24.8087389 18.1037473 23.2251939 18.0117044 22.9001428 18 22.5060555 18.0686673 22.2068948 18.1680137 21.8875979 18.3389523 21.703496 18.5332645 21.5596712 18.7684831 21.4647446 19.0197748 21.4244724 19.2871388 21.4316758 19.5632676 21.4964006 19.8306315 21.6071441 20.074616 21.7682313 20.2996111 21.9667152 20.4778521 22.1910874 20.6239527 21.7596025 21.8804095 21.599955 21.8161236 19.5317124 28.0604293"></polyline>
            <polyline id="path2848" fill="#0050AA" points="22.4307477 25 37 25 32.214683 35.7129801 31.4764555 35.672799 31.0692552 34.039659 31.7922447 34.039659 31.7922447 33.0924987 29.5609408 33.0924987 29.5609408 34.039659 30.2617757 34.039659 30.7229929 35.8794512 30.491693 36 22 26.3303327 22.4307477 25.0014321"></polyline>
            <polyline id="path2850" fill="#0050AA" points="37.0081805 26.0014748 39 29.3563459 38.3973319 29.7646491 37.8293182 30.215697 37.3019846 30.7065478 36.8077962 31.235718 36.3482581 31.8002708 35.9369382 32.389878 35.5798591 33.0119162 35.261954 33.6575341 34.9937671 34.3208434 34.7752965 35.0077389 34.6080574 35.7034743 34.4920437 36.4065825 34.4332843 37.1170626 34.4257383 37.8363815 33.0290529 38 32.744295 37.363222 32.5348685 37.0846315 32.28476 36.8384682 32 36.6262118 37.0111828 26"></polyline>
            <polyline id="path2852" fill="#0050AA" points="40.2103322 31 43 35.7798004 42.8159583 35.9845293 42.6775847 36.2124655 42.5862532 36.4690612 37 37 37.0082962 36.4090091 37.0677975 35.8262071 37.1826501 35.2420394 37.3445522 34.6742487 37.5604167 34.1228384 37.8136457 33.5919025 38.112539 33.0841676 38.4584791 32.5996392 38.8417837 32.1451333 39.2638323 31.7288451 39.7260092 31.3494099 40.2089433 31.0013665"></polyline>
            <polyline id="path2854" fill="#0050AA" points="40.8505175 30.715546 41.4193728 30.4637266 42.0034575 30.272455 42.6027649 30.1279702 43.3183369 30.0316452 43.8304463 30 44.453284 30.0151268 45.0608979 30.0908088 45.6685136 30.2119036 46.2595127 30.3880381 46.83668 30.6095818 47.3903126 30.8916733 47.9121103 31.2122955 48.4117651 31.5783276 48.8726633 31.9842608 49.2948093 32.4342337 49.6795842 32.9158526 50.0173032 33.4346255 50.3093437 33.9754147 50.5474065 34.5409743 50.7397934 35.1216718 50.8782027 35.7175035 50.9626297 36.3284731 51 36.9394418 50.977859 37.5572896 50.9017357 38.1682596 50.7702455 38.7627182 50.5861613 39.35167 50.3550214 39.9241084 50.0712855 40.4662749 49.7474075 40.9850483 49.3709391 41.4749254 48.9557122 41.9331505 48.5031177 42.3432167 48.0103857 42.7257593 47.4899688 43.054637 46.9432545 43.3367294 46.375781 43.5734104 45.7833927 43.7646817 45.1840852 43.8940328 44.6387555 43.9765968 43.9536365 44 43.3307952 43.9765968 42.7176477 43.8940328 42.1183402 43.7646817 41.455366 43.5692819 40.8920433 43.3105843 40.4117641 43.054637 39.8885799 42.717504 39.3972334 42.3432167 38.9432535 41.931774 38.5280265 41.4749254 38.1612436 40.9850483 37.8304511 40.4662749 37.5467106 39.9158531 37.3155697 39.35167 37.1314865 38.7627182 37 38.1600034 42.5806239 37.6026996 42.7273368 37.8545189 42.9183429 38.0678103 43.2325272 38.2728429 43.6878889 38.4407212 43.9716294 38.4641253 44.2622853 38.4255935 44.532181 38.3347751 44.7854694 38.19029 45.0000011 38.007273 45.1771661 37.7774703 45.3086526 37.5187726 45.3847768 37.2435604 45.4083172 36.953213 45.3695642 36.6711215 45.2768298 36.3959129 45.1384205 36.1509719 44.947419 35.9294282 44.724579 35.7532909 44.462987 35.6239439 44.1861721 35.5482582 43.9010499 35.5262457 43.6103912 35.5565352 40.8519131 30.7141894"></polyline>
            <polyline id="path2856" fill="#0050AA" points="19.6933771 31.0554711 20.2063312 31.4004015 20.6820531 31.79086 21.1177839 32.2199518 21.5162881 32.6862974 21.8761815 33.1843751 22.1822974 33.7114287 22.4498063 34.2702161 22.6635359 34.8441773 22.8248692 35.4346979 22.9393183 36.0390116 22.9930939 36.6516069 23 37.2642012 22.9462244 37.8767965 22.8469411 38.4824948 22.6869881 39.0785307 22.4801554 39.6524959 22.2264348 40.2112794 21.920318 40.7479915 21.5700775 41.2446891 21.1715743 41.7193115 20.7427357 42.1566844 20.2683923 42.5471439 19.7706096 42.90725 19.2342179 43.2121692 18.682654 43.471556 18.1007594 43.6785116 17.5133481 43.8399385 16.9080067 43.9475595 16.2943936 43.99309 15.4849802 44 15.0699308 43.9392915 14.4645913 43.8316704 13.8675271 43.6716237 13.2952808 43.4563872 12.7437205 43.1970013 12.2073252 42.8920839 11.7095452 42.5319778 11.2420959 42.1332392 10.8063605 41.6972492 10.3706296 41.1508798 10.071406 40.7162681 9.76529285 40.187837 9.51295256 39.6290498 9.3061162 39.046811 9.15305585 38.4507715 9.053776 37.8464541 9 37.2338624 9.00826341 36.6212671 9.06893641 36.0086719 9.1833855 35.4029739 9.34471524 34.8138348 9.56671991 34.2412504 9.83422604 33.689364 10.1472398 33.1609328 10.4988597 32.6642355 10.9056364 32.1965095 11.3413682 31.7674178 11.8239832 31.3852371 12.3300395 31.0403058 12.8664339 30.7422865 13.4248902 30.4898007 14.00541 30.2911191 14.7307116 30.1020967 15.8200438 30 16.4322766 30.0082671 17.0458896 30.0772539 17.6498461 30.1903893 18.240018 30.3656149 18.8150194 30.587748 17.8566825 33.4603236 17.6884578 33.911491 17.4747282 34.3488607 17.2223879 34.7613976 16.9314405 35.1518552 16.6101551 35.511961 16.2585343 35.8403375 16.0282595 35.8182656 15.7910887 35.8403375 15.5690838 35.9010418 15.178856 36.1618092 14.9182431 36.5522714 14.8341284 37.0117158 14.9334117 37.4711639 15.1940218 37.8547249 15.592525 38.1072143 16.0517016 38.1817171 16.5094952 38.0754776 16.8845572 37.8009134 17.1300006 37.4021771 17.1989467 36.9358325 17.083121 36.4832845 16.9617759 36.2846038 17.9187353 34.897989 18.4551279 33.9804769 18.9294694 33.0312318 19.6947629 31.055474"></polyline>
        </g>
    </g>
</svg>
