<svg width="60px" height="60px" viewBox="0 0 60 60" version="1.1" xmlns="http://www.w3.org/2000/svg" xmlns:xlink="http://www.w3.org/1999/xlink">
    <!-- Generator: Sketch 51.3 (57544) - http://www.bohemiancoding.com/sketch -->
    <desc>Created with Sketch.</desc>
    <defs></defs>
    <g id="Page-1" stroke="none" stroke-width="1" fill="none" fill-rule="evenodd">
        <g id="Finland_road_sign_422" transform="translate(30.000000, 30.000000) scale(-1, 1) translate(-30.000000, -30.000000) translate(-2.000000, -2.000000)" fill-rule="nonzero">
            <circle id="circle862" fill="#0050AA" cx="32" cy="32" r="30"></circle>
            <polyline id="path2846" fill="#FFFFFF" points="20.0634687 29.4181678 19.2297588 29.1321779 17.7062878 28.8340835 16.4392268 28.7387535 14.9007608 28.7871744 14.9412468 29.1821117 13.5107429 29.5180377 12.1537159 30.0809399 10.8956509 30.8541702 9.77253994 31.8104969 8.81437256 32.9287348 8.03914138 34.1876987 7.47383789 35.5556091 7.1259582 36.9916155 7 38.4699882 7.1064651 39.9483618 7.44834579 41.3919275 7.99865398 42.7613532 8.76488966 44.0278804 9.21323595 44.6165088 10.4787959 45.8769824 12.0787419 46.9089693 12.9664339 47.3447636 14.8602738 47.8320061 16.5336938 47.9606257 18.5055108 47.6973349 19.9045277 47.2524607 21.2210687 46.5806104 22.4116587 45.7165861 23.4522957 44.6740066 24.3174966 43.4740602 24.9922616 42.15457 25.4001206 42.2983201 25.8589596 40.8623177 26.0898816 39.3688133 26.0988716 37.8647157 25.8829446 36.3696997 25.4346026 34.9261296 24.7763286 33.564272 23.9261227 32.3295191 22.8944817 31.2385201 21.8853307 30.4425897 21.0621167 29.9205436 21.5029667 28.6434235 30.2554305 38.4018931 29.9315415 39.09039 29.8220795 40.2252704 30.0140115 40.9637015 30.3963795 41.6189056 31.2630805 42.3497694 32.3547015 42.6524061 32.7280725 42.6433424 33.1524235 44.2397462 32.4866575 44.2397462 32.4866575 45.2142282 34.9608014 45.2142282 34.9518114 44.2563914 34.0866114 44.2563914 33.5692935 42.4163683 34.2275634 41.9639268 34.7433844 41.3495804 35.0762684 40.8124023 35.1767344 40.2268023 36.9161324 40.066406 37.2655094 41.5024084 37.8323134 42.8703205 38.6060444 44.1307971 39.5642113 45.2550838 40.6888193 46.2220036 41.9453833 46.9937241 43.3024143 47.5566273 45.4601682 47.9924216 46.9341562 48 48.3916492 47.773027 49.7876661 47.3220951 51.1042091 46.6578141 52.2947951 45.7937877 53.3444331 44.7512133 54.21863 43.5588311 54.900892 42.2408546 55.367229 40.8381406 55.617644 39.3688458 55.634128 37.8919831 56 37.866247 55.90853 37.1020912 55.533662 35.6070723 54.942867 34.1877162 54.143644 32.8773035 53.1449901 31.7106456 51.9873911 30.7104378 50.6798431 29.9039148 49.2718331 29.307724 47.7918472 28.949099 46.2758712 28.8144267 44.7524002 28.9233742 43.2619163 29.2668676 41.8464073 29.8373346 39.5387083 25.7305728 39.7891233 25.1933984 39.6466703 25.1192535 39.9390683 24.4731235 40.2389653 24.4640597 40.5208673 24.4050472 40.7877733 24.2960991 41.0381883 24.1462974 41.2631113 23.9526077 42.5946503 22.2396926 42.6861163 21.9294926 42.6531103 21.7690953 42.4611783 21.5088298 42.1537813 21.4089597 40.9796913 21.7690953 39.8130953 21.9718599 39.2223003 21.9794383 37.6403474 21.7691054 37.2249924 21.7524723 36.8171374 21.7782076 36.5337314 21.920443 36.5097444 22.3895317 37.2085044 23.0114434 38.4905564 23.8512573 39.1803173 24.1947507 38.9329033 24.733438 38.7994504 24.6819892 38.7154794 24.8333078 22.8779997 24.8333078 23.3683287 23.3640147 23.1943887 23.3140791 23.9441287 21.256162 23.7761877 21.1880696 23.8271667 21.0458301 23.4597947 20.8945127 23.3938207 21.0367522 23.1853927 20.945961 23.0624327 20.8294446 22.9619707 20.5177299 22.9784537 20.3588483 23.0369337 20.2166078 23.1373997 20.0895029 23.3053407 20.0047653 23.5272617 19.9139741 23.9036357 19.8519332 27.0075556 20.1818058 27.1739986 19.3087056 25.5665576 19.1074526 23.9156277 19.0121224 23.5767447 19 23.1658877 19.0711197 22.8539967 19.1740142 22.5211127 19.3510577 22.3291767 19.5523096 22.1792317 19.7959289 22.0802657 20.0561953 22.0382797 20.333108 22.0457897 20.6190986 22.1132687 20.8960112 22.2287247 21.1487094 22.3966667 21.3817401 22.6035967 21.5663469 22.8375167 21.7176652 22.3876707 23.0189955 22.2212297 22.9524137 20.0649767 29.4197303"></polyline>
            <polyline id="path2848" fill="#0050AA" points="23.4594642 26 39 26 33.8956618 37.6868874 33.1082192 37.6430535 32.6738722 35.8614462 33.445061 35.8614462 33.445061 34.8281804 31.0650035 34.8281804 31.0650035 35.8614462 31.8125608 35.8614462 32.3045258 37.8684923 32.0578058 38 23 27.4512721 23.4594642 26.0015623"></polyline>
            <polyline id="path2850" fill="#0050AA" points="39.0081805 27.0015977 41 30.6360414 40.3973319 31.0783699 39.8293182 31.567005 39.3019846 32.0987601 38.8077962 32.6720278 38.3482581 33.2836267 37.9369382 33.9223678 37.5798591 34.5962425 37.261954 35.2956619 36.9937671 36.014247 36.7752965 36.7583838 36.6080574 37.5120971 36.4920437 38.2737977 36.4332843 39.0434845 36.4257383 39.8227466 35.0290529 40 34.744295 39.3101572 34.5348685 39.0083508 34.28476 38.7416739 34 38.5117294 39.0111828 27"></polyline>
            <polyline id="path2852" fill="#0050AA" points="42.2103322 32 45 36.7798004 44.8159583 36.9845293 44.6775847 37.2124655 44.5862532 37.4690612 39 38 39.0082962 37.4090091 39.0677975 36.8262071 39.1826501 36.2420394 39.3445522 35.6742487 39.5604167 35.1228384 39.8136457 34.5919025 40.112539 34.0841676 40.4584791 33.5996392 40.8417837 33.1451333 41.2638323 32.7288451 41.7260092 32.3494099 42.2089433 32.0013665"></polyline>
            <polyline id="path2854" fill="#0050AA" points="43.1255545 31.7666564 43.7350423 31.4968499 44.3608473 31.291916 45.0029624 31.1371109 45.7696467 31.0339055 46.3183354 31 46.9856614 31.0162073 47.6366763 31.0972952 48.2876931 31.2270396 48.9209065 31.4157552 49.5393 31.6531234 50.1324777 31.9553642 50.6915467 32.298888 51.2268912 32.6910653 51.7207106 33.1259938 52.17301 33.6081075 52.5852687 34.1241278 52.9471106 34.6799559 53.2600111 35.2593729 53.5150784 35.8653296 53.7212072 36.4875055 53.8695029 37.1258966 53.9599604 37.7805069 54 38.4351162 53.9762775 39.097096 53.8947168 39.7517067 53.7538345 40.3886267 53.5566014 41.0196464 53.3089515 41.6329732 53.0049488 42.2138659 52.6579366 42.7696946 52.2545776 43.294563 51.8096916 43.7855184 51.324769 44.224875 50.7968418 44.6347421 50.2392523 44.9871111 49.653487 45.289353 49.0454796 45.5429397 48.4107779 45.7478733 47.7686628 45.8864637 47.1843809 45.9749252 46.4503248 46 45.7829948 45.9749252 45.1260511 45.8864637 44.483936 45.7478733 43.7736064 45.5385163 43.1700464 45.2613403 42.6554615 44.9871111 42.0949071 44.6258971 41.5684644 44.224875 41.0820573 43.7840436 40.6371713 43.294563 40.2441896 42.7696946 39.889769 42.2138659 39.5857614 41.6241283 39.3381104 41.0196464 39.1408784 40.3886267 39 39.7428608 44.9792399 39.1457495 45.1364323 39.4155559 45.3410817 39.6440825 45.6777077 39.8637603 46.1655953 40.0436298 46.4696029 40.0687057 46.7810199 40.0274216 47.0701939 39.9301162 47.3415743 39.7753107 47.5714297 39.5792211 47.7612494 39.3330039 47.9021278 39.0558277 47.9836894 38.7609575 48.0089112 38.449871 47.9673902 38.1476302 47.8680319 37.8527638 47.7197362 37.590327 47.5150918 37.3529588 47.2763347 37.1642403 46.9960575 37.0256542 46.6994701 36.9445624 46.393982 36.9209775 46.082562 36.9534306 43.1270498 31.7652029"></polyline>
            <polyline id="path2856" fill="#0050AA" points="20.4571898 32.1308619 21.0067835 32.5004302 21.5164855 32.9187786 21.9833399 33.3785198 22.4103086 33.8781758 22.7959087 34.4118304 23.1238901 34.9765307 23.4105067 35.5752316 23.6395027 36.19019 23.8123598 36.8228906 23.9349839 37.4703696 23.9926006 38.1267217 24 38.7830727 23.9423833 39.4394249 23.8360083 40.0883873 23.6646301 40.7269971 23.4430237 41.3419599 23.1711802 41.9406565 22.8431978 42.5157052 22.4679402 43.0478811 22.0409725 43.5564052 21.5815026 44.025019 21.0732775 44.4433684 20.5399388 44.8291964 19.9652335 45.1558955 19.3742722 45.43381 18.7508136 45.6555481 18.1214444 45.8285055 17.4728643 45.9438138 16.8154217 45.9925964 15.948193 46 15.5034973 45.9349551 14.8549192 45.8196469 14.2152076 45.6481682 13.6020865 45.4175577 13.0111291 45.1396442 12.4364199 44.8129471 11.9030841 44.4271191 11.4022456 43.9998991 10.9353862 43.532767 10.4685318 42.9473712 10.147935 42.4817158 9.81995663 41.9155397 9.54959202 41.3168391 9.32798165 40.6930118 9.16398841 40.054398 9.05761714 39.4069151 9 38.7505669 9.00885366 38.0942148 9.07386044 37.4378627 9.19648446 36.7889007 9.36933776 36.1576801 9.6071999 35.5441969 9.89381362 34.95289 10.2291855 34.3867137 10.6059211 33.854538 11.0417533 33.3534031 11.5086087 32.8936619 12.0256963 32.4841826 12.5678995 32.1146134 13.1426078 31.795307 13.7409537 31.5247864 14.3629393 31.3119134 15.1400481 31.1093893 16.3071898 31 16.9631535 31.0088576 17.620596 31.0827721 18.2676923 31.2039886 18.9000193 31.3917302 19.5160922 31.6297301 18.4893026 34.7074896 18.3090619 35.1908832 18.0800659 35.6594936 17.8097013 36.1014974 17.497972 36.5198448 17.1537376 36.9056725 16.7770011 37.2575045 16.5302781 37.233856 16.2761665 37.2575045 16.0383041 37.3225448 15.6202028 37.6019384 15.3409747 38.0202907 15.2508519 38.5125527 15.3572268 39.0048184 15.6364519 39.4157767 16.0634196 39.6863011 16.5553946 39.7661254 17.0458877 39.6522974 17.4477399 39.3581215 17.7107149 38.930904 17.7845857 38.4312491 17.6604867 37.9463763 17.5304742 37.733504 18.5557878 36.2478453 19.1304941 35.2647967 19.6387173 34.2477484 20.4586746 32.130865"></polyline>
        </g>
    </g>
</svg>
